<?xml version="1.0" standalone="no"?>
<!DOCTYPE svg PUBLIC "-//W3C//DTD SVG 20010904//EN"
 "http://www.w3.org/TR/2001/REC-SVG-20010904/DTD/svg10.dtd">
<svg version="1.0" xmlns="http://www.w3.org/2000/svg"
 width="2000.000000pt" height="2000.000000pt" viewBox="0 0 2000.000000 2000.000000"
 preserveAspectRatio="xMidYMid meet">
<metadata>
Created by potrace 1.11, written by Peter Selinger 2001-2013
</metadata>
<g transform="translate(0.000000,2000.000000) scale(0.100000,-0.100000)"
fill="#000000" stroke="none">
<path d="M459 19333 c-2 -50 -6 -116 -13 -178 -3 -27 -8 -75 -11 -105 -3 -30
-8 -73 -11 -95 -3 -22 -7 -56 -10 -75 -15 -124 -86 -656 -94 -710 -5 -36 -12
-85 -15 -110 -4 -25 -8 -56 -10 -70 -2 -14 -6 -50 -10 -80 -3 -30 -8 -66 -10
-80 -2 -14 -7 -50 -10 -81 -3 -31 -7 -66 -10 -77 -2 -12 -7 -52 -10 -89 -4
-37 -8 -79 -10 -93 -4 -43 -16 -163 -20 -210 -2 -25 -7 -99 -10 -165 -5 -104
-17 -226 -29 -291 -5 -26 -16 -110 -21 -159 -2 -22 -6 -53 -9 -70 -2 -16 -7
-55 -11 -85 -8 -70 -15 -125 -20 -170 -3 -19 -7 -64 -10 -100 -3 -36 -8 -81
-10 -100 -2 -19 -7 -61 -10 -92 -3 -32 -7 -82 -10 -110 -7 -69 -12 -133 -20
-243 -4 -49 -8 -112 -10 -140 -30 -400 -40 -710 -39 -1275 0 -441 6 -734 19
-945 2 -33 6 -109 9 -170 8 -147 23 -352 31 -405 2 -14 6 -65 10 -115 3 -49 8
-101 10 -115 2 -14 7 -54 10 -90 3 -36 10 -103 16 -150 5 -47 12 -105 15 -130
7 -65 21 -173 29 -230 2 -14 7 -47 10 -75 3 -27 8 -61 10 -75 3 -14 7 -43 10
-65 4 -22 10 -65 15 -95 5 -30 12 -75 15 -100 3 -25 8 -56 10 -70 3 -14 8 -36
10 -50 3 -14 14 -80 25 -147 11 -68 41 -225 66 -350 26 -126 48 -237 50 -248
7 -49 70 -322 109 -475 13 -52 26 -106 29 -120 7 -29 38 -151 60 -232 9 -32
22 -82 30 -110 73 -272 220 -741 337 -1073 218 -622 555 -1395 842 -1930 24
-44 67 -125 96 -180 29 -55 57 -104 61 -110 4 -5 21 -35 37 -65 27 -50 171
-296 212 -362 9 -14 29 -48 45 -75 117 -194 543 -828 591 -879 5 -6 17 -21 25
-34 73 -107 486 -629 530 -670 3 -3 18 -21 34 -40 16 -19 55 -64 87 -100 32
-36 67 -76 79 -90 75 -87 255 -276 455 -475 269 -269 368 -362 564 -531 19
-16 39 -34 45 -39 6 -6 67 -57 136 -114 69 -57 136 -113 150 -125 324 -270
1056 -767 1415 -960 28 -15 57 -31 65 -36 179 -110 713 -367 1055 -510 581
-241 1311 -460 1915 -574 107 -20 139 -26 166 -31 17 -2 85 -14 150 -25 125
-20 140 -23 269 -40 155 -21 191 -24 250 -24 51 0 155 10 205 19 8 1 44 6 80
10 36 4 74 9 85 11 11 2 37 6 59 9 21 3 50 7 65 9 14 3 96 16 181 30 167 28
162 27 325 58 61 11 117 22 126 23 9 2 61 13 115 25 123 27 118 26 179 40 28
6 57 13 66 15 62 13 472 122 599 160 237 70 347 107 705 235 63 22 332 129
354 140 9 4 61 27 116 50 618 262 1320 660 1850 1050 121 89 211 156 225 167
8 7 56 44 105 83 50 39 99 79 110 88 11 9 45 37 75 62 30 25 57 47 60 50 3 3
39 34 80 70 192 166 266 236 495 465 403 402 736 796 1066 1258 116 163 279
406 279 416 0 5 4 11 8 13 7 2 123 185 190 297 98 166 222 385 295 521 49 93
267 528 267 534 0 2 22 51 49 108 248 524 514 1254 716 1958 49 171 183 694
199 775 3 17 15 71 26 120 19 86 74 353 84 405 4 25 50 267 61 325 3 17 8 46
11 65 3 19 12 76 20 125 8 50 17 101 19 115 6 45 17 115 20 131 2 9 6 40 10
69 4 29 8 62 11 73 2 11 8 57 14 101 6 45 12 95 15 111 2 17 7 57 11 90 3 33
8 68 9 77 2 9 7 48 10 85 4 37 9 76 11 87 2 10 6 53 10 94 3 42 7 83 9 93 3
16 9 77 20 209 7 86 16 181 20 230 4 39 11 146 20 275 2 22 6 96 9 165 4 69 9
150 11 180 12 171 19 561 20 1055 0 563 -9 929 -30 1275 -3 52 -8 131 -10 175
-10 162 -14 222 -20 300 -6 88 -14 190 -20 245 -1 19 -6 76 -9 125 -4 50 -9
101 -11 115 -3 14 -7 59 -10 100 -3 41 -7 91 -9 110 -3 19 -7 62 -11 95 -8 87
-13 132 -21 200 -4 33 -8 74 -10 90 -3 35 -12 115 -19 165 -2 19 -7 53 -9 75
-8 64 -27 208 -31 235 -2 14 -6 48 -10 75 -3 28 -8 61 -10 75 -2 14 -11 77
-19 140 -9 63 -18 124 -20 135 -3 18 -8 49 -22 155 -3 19 -7 42 -9 50 -3 8 -7
33 -10 55 -3 22 -17 105 -31 185 -14 80 -27 160 -30 179 -3 18 -8 43 -10 55
-8 43 -40 230 -49 291 -4 22 -13 78 -21 125 -9 47 -22 130 -30 185 -7 55 -16
114 -19 130 -5 35 -23 180 -30 248 -3 26 -7 68 -10 95 -3 26 -8 80 -10 121 -2
40 -6 75 -8 77 -4 4 -1830 7 -9402 19 -1738 3 -4601 7 -6362 10 l-3203 5 -1
-37z"/>
</g>
</svg>
